<svg width="64" height="64" viewBox="0 0 64 64" fill="none" xmlns="http://www.w3.org/2000/svg">
<path d="M44.4002 15.2539H19.6002C11.7335 15.2539 5.3335 21.6539 5.3335 29.5206V44.4006C5.3335 52.2672 11.7335 58.6672 19.6002 58.6672H44.4002C52.2668 58.6672 58.6668 52.2672 58.6668 44.4006V29.5206C58.6668 21.6539 52.2668 15.2539 44.4002 15.2539ZM38.6668 32.0539C38.6668 30.5872 39.8668 29.3872 41.3335 29.3872C42.8002 29.3872 44.0002 30.5872 44.0002 32.0539C44.0002 33.5206 42.8002 34.7472 41.3335 34.7472C39.8668 34.7472 38.6668 33.5739 38.6668 32.1072V32.0539ZM27.0135 42.8539C26.6135 43.2539 26.1068 43.4406 25.6002 43.4406C25.0935 43.4406 24.5868 43.2539 24.1868 42.8539L21.4402 40.1072L18.8002 42.7472C18.4002 43.1472 17.8935 43.3339 17.3868 43.3339C16.8802 43.3339 16.3735 43.1472 15.9735 42.7472C15.2002 41.9739 15.2002 40.6939 15.9735 39.9206L18.6135 37.2806L16.0535 34.7206C15.2802 33.9472 15.2802 32.6672 16.0535 31.8939C16.8268 31.1206 18.1068 31.1206 18.8802 31.8939L21.4402 34.4539L24.0802 31.8139C24.8535 31.0406 26.1335 31.0406 26.9068 31.8139C27.6802 32.5872 27.6802 33.8672 26.9068 34.6406L24.2668 37.2806L27.0135 40.0272C27.7868 40.8006 27.7868 42.0806 27.0135 42.8539ZM36.1068 40.0006C34.6402 40.0006 33.4135 38.8006 33.4135 37.3339C33.4135 35.8672 34.5868 34.6672 36.0535 34.6672H36.1068C37.5735 34.6672 38.7735 35.8672 38.7735 37.3339C38.7735 38.8006 37.6002 40.0006 36.1068 40.0006ZM41.3335 45.2539C39.8668 45.2539 38.6668 44.0806 38.6668 42.6139V42.5606C38.6668 41.0939 39.8668 39.8939 41.3335 39.8939C42.8002 39.8939 44.0002 41.0939 44.0002 42.5606C44.0002 44.0272 42.8268 45.2539 41.3335 45.2539ZM46.6135 40.0006C45.1468 40.0006 43.9202 38.8006 43.9202 37.3339C43.9202 35.8672 45.0935 34.6672 46.5602 34.6672H46.6135C48.0802 34.6672 49.2802 35.8672 49.2802 37.3339C49.2802 38.8006 48.1068 40.0006 46.6135 40.0006Z" fill="white"/>
<path d="M36.3731 7.22634L36.3465 9.73301C36.3198 12.0797 34.3731 14.0263 31.9998 14.0263C31.5998 14.0263 31.3598 14.293 31.3598 14.6397C31.3598 14.9863 31.6265 15.253 31.9731 15.253H27.6798C27.6531 15.0663 27.6265 14.853 27.6265 14.6397C27.6265 12.2397 29.5731 10.293 31.9465 10.293C32.3465 10.293 32.6131 10.0263 32.6131 9.67968L32.6398 7.17301C32.6665 6.15967 33.4931 5.33301 34.5065 5.33301H34.5331C35.5731 5.33301 36.3731 6.18634 36.3731 7.22634Z" fill="white"/>
</svg>
