<svg width="64" height="64" viewBox="0 0 64 64" fill="none" xmlns="http://www.w3.org/2000/svg">
<path d="M25.5201 33.2266L17.3867 41.3599" stroke="white" stroke-width="2" stroke-miterlimit="10" stroke-linecap="round" stroke-linejoin="round"/>
<path d="M17.4668 33.3076L25.6001 41.441" stroke="white" stroke-width="2" stroke-miterlimit="10" stroke-linecap="round" stroke-linejoin="round"/>
<path d="M36.0801 37.333H36.1067" stroke="white" stroke-width="2.66667" stroke-miterlimit="10" stroke-linecap="round" stroke-linejoin="round"/>
<path d="M46.5864 37.333H46.6131" stroke="white" stroke-width="2.66667" stroke-miterlimit="10" stroke-linecap="round" stroke-linejoin="round"/>
<path d="M41.3335 42.6129V42.5596" stroke="white" stroke-width="2.66667" stroke-miterlimit="10" stroke-linecap="round" stroke-linejoin="round"/>
<path d="M41.3335 32.107V32.0537" stroke="white" stroke-width="2.66667" stroke-miterlimit="10" stroke-linecap="round" stroke-linejoin="round"/>
<path d="M24.0002 58.6667H40.0002C53.3335 58.6667 58.6668 53.3333 58.6668 40V34.6667C58.6668 21.3333 53.3335 16 40.0002 16H24.0002C10.6668 16 5.3335 21.3333 5.3335 34.6667V40C5.3335 53.3333 10.6668 58.6667 24.0002 58.6667Z" stroke="white" stroke-width="2" stroke-linecap="round" stroke-linejoin="round"/>
<path d="M34.6931 5.33301L34.6665 8.02634C34.6398 9.49301 33.4665 10.6663 31.9998 10.6663H31.9198C30.4531 10.6663 29.2798 11.8663 29.2798 13.333C29.2798 14.7997 30.4798 15.9997 31.9465 15.9997H34.6131" stroke="white" stroke-width="2" stroke-linecap="round" stroke-linejoin="round"/>
</svg>
