<svg width="218" height="194" viewBox="0 0 218 194" fill="none" xmlns="http://www.w3.org/2000/svg">
<path d="M127.059 2.649L51.6188 130.852C50.6321 132.528 51.7017 134.67 53.6288 134.872C53.9963 134.91 54.4036 134.94 54.8549 134.958C63.8972 135.321 77.0313 135.146 77.0313 135.146C77.0313 135.146 79.5368 135.412 82.7361 129.901C85.9355 124.392 123.721 59.6585 123.721 59.6585C123.721 59.6585 125.379 56.7063 127.02 54.0102C128.077 52.2759 130.595 52.3181 131.598 54.0843C142.802 73.8147 191.758 166.757 191.758 166.757L202.775 186.797C203.83 188.715 206.607 188.613 207.52 186.622L216.011 168.082C218.141 163.432 217.933 158.04 215.451 153.571L131.642 2.6562C130.616 0.899275 128.091 0.895161 127.059 2.649Z" fill="#BD0A26"/>
<path d="M200.74 186.416L132.107 58.5167C131.105 56.8503 128.722 56.7824 127.632 58.3923C127.425 58.6998 127.206 59.0465 126.976 59.4374C122.376 67.2695 116.311 78.9795 116.311 78.9795C116.311 78.9795 114.891 81.0708 118.204 86.5123C121.517 91.9538 146.12 143.56 146.12 143.56C146.12 143.56 154.354 159.634 155.992 162.484C156.893 164.05 155.801 166.015 154.001 166.065C132.466 166.662 26.288 165.977 26.288 165.977L3.50981 166.239C1.32881 166.264 0.103721 168.772 1.41682 170.522L13.6431 186.818C16.7094 190.905 21.533 193.274 26.6257 193.194L198.563 190.47C200.589 190.394 201.788 188.16 200.74 186.416Z" fill="#BD0A26"/>
<path d="M5.27443 164.064L149.581 164.364C151.518 164.368 152.812 162.355 152.007 160.584C151.854 160.247 151.673 159.878 151.459 159.478C147.183 151.463 141.597 140.176 141.597 140.176C141.597 140.176 140.554 137.872 134.206 137.895C127.859 137.919 55.8478 138.033 55.8478 138.033C55.8478 138.033 52.4755 138.095 49.3304 138.04C47.3081 138.005 46.0656 135.802 47.0706 134.038C58.3041 114.325 111.622 24.6682 111.622 24.6682L123.216 4.96046C124.327 3.07393 122.829 0.719359 120.66 0.940518L100.455 2.99163C95.3883 3.50596 90.8707 6.42216 88.2977 10.8392L4.38913 157.519L2.95629 160.09C1.97069 161.87 3.24797 164.06 5.27545 164.064H5.27443Z" fill="#BD0A26"/>
</svg>
