<svg width="196" height="35" viewBox="0 0 196 35" fill="none" xmlns="http://www.w3.org/2000/svg">
<mask id="path-1-inside-1_240_1225" fill="white">
<path d="M180.961 6.82211C180.113 8.80862 179.255 10.7926 178.415 12.7842C176.148 18.1606 173.888 23.5371 171.629 28.916C171.237 29.8449 171.242 29.8752 172.294 29.8929C175.385 29.9459 178.474 29.9737 181.566 30.0191C182.03 30.0267 182.496 30.0418 182.955 30.0973C184.137 30.2412 184.98 31.1171 184.928 32.1192C184.882 33.0228 183.96 33.8735 182.87 33.9189C179.033 34.0754 175.197 34.1511 171.356 34.0199C170.222 33.982 169.089 33.9694 167.96 33.8962C166.461 33.8028 165.693 32.7124 166.224 31.3216C167.185 28.7974 168.192 26.2909 169.235 23.7996C172.229 16.6486 175.254 9.50781 178.266 2.36193C178.304 2.26854 178.338 2.17262 178.379 2.08175C179.18 0.309796 180.677 -0.28338 182.512 0.456197C182.978 0.645509 183.336 0.95598 183.532 1.428C187.528 11.1687 191.799 20.8034 195.607 30.6173C195.69 30.8293 195.757 31.0464 195.834 31.2584C196.257 32.4372 195.86 33.3939 194.783 33.8003C193.703 34.2067 192.688 33.775 192.201 32.6871C189.403 26.4348 186.809 20.0992 184.124 13.8014C183.135 11.4817 182.148 9.15948 181.162 6.83726C181.097 6.83221 181.03 6.82464 180.966 6.81959L180.961 6.82211Z"/>
</mask>
<path d="M180.961 6.82211C180.113 8.80862 179.255 10.7926 178.415 12.7842C176.148 18.1606 173.888 23.5371 171.629 28.916C171.237 29.8449 171.242 29.8752 172.294 29.8929C175.385 29.9459 178.474 29.9737 181.566 30.0191C182.03 30.0267 182.496 30.0418 182.955 30.0973C184.137 30.2412 184.98 31.1171 184.928 32.1192C184.882 33.0228 183.96 33.8735 182.87 33.9189C179.033 34.0754 175.197 34.1511 171.356 34.0199C170.222 33.982 169.089 33.9694 167.96 33.8962C166.461 33.8028 165.693 32.7124 166.224 31.3216C167.185 28.7974 168.192 26.2909 169.235 23.7996C172.229 16.6486 175.254 9.50781 178.266 2.36193C178.304 2.26854 178.338 2.17262 178.379 2.08175C179.18 0.309796 180.677 -0.28338 182.512 0.456197C182.978 0.645509 183.336 0.95598 183.532 1.428C187.528 11.1687 191.799 20.8034 195.607 30.6173C195.69 30.8293 195.757 31.0464 195.834 31.2584C196.257 32.4372 195.86 33.3939 194.783 33.8003C193.703 34.2067 192.688 33.775 192.201 32.6871C189.403 26.4348 186.809 20.0992 184.124 13.8014C183.135 11.4817 182.148 9.15948 181.162 6.83726C181.097 6.83221 181.03 6.82464 180.966 6.81959L180.961 6.82211Z" fill="#FCFBFC" stroke="#F8F8F8" stroke-width="0.499794" mask="url(#path-1-inside-1_240_1225)"/>
<mask id="path-2-inside-2_240_1225" fill="white">
<path d="M114.84 6.49881C114.082 7.89467 113.577 9.23752 113.023 10.5551C110.416 16.7469 107.832 22.9487 105.222 29.1405C105.003 29.6604 105.047 29.8068 105.668 29.8119C109.326 29.8371 112.985 29.9002 116.641 29.9507C117.666 29.9659 118.614 30.8973 118.64 31.9196C118.666 32.9317 117.872 33.7571 116.749 33.8127C111.805 34.0575 106.861 34.0348 101.917 33.8505C101.208 33.8253 100.623 33.6032 100.175 33.0403C99.7138 32.4623 99.6854 31.8943 99.9611 31.2103C103.385 22.7064 106.907 14.2429 110.463 5.79205C111.022 4.46434 111.648 3.1644 112.16 1.81903C112.627 0.592291 113.5 0.140468 114.775 0.153088C116.375 0.170758 116.878 0.453463 117.475 1.88466C120.925 10.1336 124.38 18.3825 127.815 26.639C128.513 28.3151 129.234 29.9886 129.67 31.758C129.896 32.6743 129.461 33.3836 128.482 33.7193C127.446 34.0752 126.498 33.7773 126.122 32.9343C123.18 26.3311 120.384 19.6698 117.568 13.0162C116.674 10.9009 115.791 8.78317 114.835 6.50133L114.84 6.49881Z"/>
</mask>
<path d="M114.84 6.49881C114.082 7.89467 113.577 9.23752 113.023 10.5551C110.416 16.7469 107.832 22.9487 105.222 29.1405C105.003 29.6604 105.047 29.8068 105.668 29.8119C109.326 29.8371 112.985 29.9002 116.641 29.9507C117.666 29.9659 118.614 30.8973 118.64 31.9196C118.666 32.9317 117.872 33.7571 116.749 33.8127C111.805 34.0575 106.861 34.0348 101.917 33.8505C101.208 33.8253 100.623 33.6032 100.175 33.0403C99.7138 32.4623 99.6854 31.8943 99.9611 31.2103C103.385 22.7064 106.907 14.2429 110.463 5.79205C111.022 4.46434 111.648 3.1644 112.16 1.81903C112.627 0.592291 113.5 0.140468 114.775 0.153088C116.375 0.170758 116.878 0.453463 117.475 1.88466C120.925 10.1336 124.38 18.3825 127.815 26.639C128.513 28.3151 129.234 29.9886 129.67 31.758C129.896 32.6743 129.461 33.3836 128.482 33.7193C127.446 34.0752 126.498 33.7773 126.122 32.9343C123.18 26.3311 120.384 19.6698 117.568 13.0162C116.674 10.9009 115.791 8.78317 114.835 6.50133L114.84 6.49881Z" fill="#FCFBFC" stroke="#F8F8F8" stroke-width="0.499794" mask="url(#path-2-inside-2_240_1225)"/>
<mask id="path-3-inside-3_240_1225" fill="white">
<path d="M64.0692 16.8404C63.8425 9.15432 69.8532 1.87718 77.7138 0.514138C82.6244 -0.336502 87.1615 0.741312 91.124 3.81068C92.2679 4.69666 93.3423 5.65836 94.0972 6.89267C94.8108 8.05883 94.293 9.33606 93.0073 9.70963C92.3813 9.89137 91.8376 9.7904 91.3481 9.33353C90.4284 8.47027 89.5292 7.57672 88.545 6.78414C84.3635 3.41944 78.7083 3.16955 73.9935 6.10009C67.0449 10.4214 65.9577 20.248 71.5639 26.157C75.748 30.5692 82.627 31.2861 87.4552 28.2521C88.9083 27.3408 90.0058 26.0611 91.2451 24.9227C91.9021 24.3194 92.5049 24.2286 93.2907 24.5996C94.3909 25.1196 94.7541 26.2025 94.1487 27.2475C93.6102 28.1763 92.8347 28.9159 92.0206 29.6025C86.7312 34.0778 80.7205 35.3399 74.3001 32.6062C67.3979 29.6681 64.1568 24.1453 64.064 16.8328L64.0692 16.8404Z"/>
</mask>
<path d="M64.0692 16.8404C63.8425 9.15432 69.8532 1.87718 77.7138 0.514138C82.6244 -0.336502 87.1615 0.741312 91.124 3.81068C92.2679 4.69666 93.3423 5.65836 94.0972 6.89267C94.8108 8.05883 94.293 9.33606 93.0073 9.70963C92.3813 9.89137 91.8376 9.7904 91.3481 9.33353C90.4284 8.47027 89.5292 7.57672 88.545 6.78414C84.3635 3.41944 78.7083 3.16955 73.9935 6.10009C67.0449 10.4214 65.9577 20.248 71.5639 26.157C75.748 30.5692 82.627 31.2861 87.4552 28.2521C88.9083 27.3408 90.0058 26.0611 91.2451 24.9227C91.9021 24.3194 92.5049 24.2286 93.2907 24.5996C94.3909 25.1196 94.7541 26.2025 94.1487 27.2475C93.6102 28.1763 92.8347 28.9159 92.0206 29.6025C86.7312 34.0778 80.7205 35.3399 74.3001 32.6062C67.3979 29.6681 64.1568 24.1453 64.064 16.8328L64.0692 16.8404Z" fill="#FCFBFC" stroke="#F8F8F8" stroke-width="0.499794" mask="url(#path-3-inside-3_240_1225)"/>
<mask id="path-4-inside-4_240_1225" fill="white">
<path d="M43.3398 0.102782C45.5298 0.102782 47.7197 0.0598715 49.9071 0.112879C54.3514 0.218893 58.5715 4.41656 58.9992 8.75558C59.566 14.4905 55.4489 18.3827 51.8471 19.4378C50.2832 19.8947 48.6807 19.7861 47.0885 19.829C44.4863 19.8972 41.8842 19.9174 39.282 19.9149C38.6714 19.9149 38.5091 20.0941 38.5065 20.6898C38.5065 24.3473 38.5992 28.0048 38.4498 31.6623C38.406 32.7603 37.9191 33.3787 36.9916 33.6311C36.1645 33.8558 35.3839 33.4923 34.7784 32.624C34.5955 32.3615 34.5105 32.0964 34.5105 31.7784C34.5311 27.4898 34.5105 23.2013 34.5698 18.9128C34.5981 16.7117 34.7089 15.9721 37.4218 15.9191C41.338 15.8434 45.2541 15.7323 49.1676 15.75C51.4065 15.7601 52.9421 14.7126 54.0602 13.0012C55.9797 10.0656 54.828 6.33997 51.7286 4.62607C50.2265 3.79562 48.6859 4.06823 47.1529 3.98745C43.6799 3.80572 40.1966 3.98998 36.7236 3.75018C35.9919 3.6997 35.3143 3.61388 34.8763 2.88692C34.0931 1.58446 34.7681 0.211321 36.3037 0.105306C38.6456 -0.0562395 40.9901 -0.0108048 43.3347 0.100258L43.3398 0.102782Z"/>
</mask>
<path d="M43.3398 0.102782C45.5298 0.102782 47.7197 0.0598715 49.9071 0.112879C54.3514 0.218893 58.5715 4.41656 58.9992 8.75558C59.566 14.4905 55.4489 18.3827 51.8471 19.4378C50.2832 19.8947 48.6807 19.7861 47.0885 19.829C44.4863 19.8972 41.8842 19.9174 39.282 19.9149C38.6714 19.9149 38.5091 20.0941 38.5065 20.6898C38.5065 24.3473 38.5992 28.0048 38.4498 31.6623C38.406 32.7603 37.9191 33.3787 36.9916 33.6311C36.1645 33.8558 35.3839 33.4923 34.7784 32.624C34.5955 32.3615 34.5105 32.0964 34.5105 31.7784C34.5311 27.4898 34.5105 23.2013 34.5698 18.9128C34.5981 16.7117 34.7089 15.9721 37.4218 15.9191C41.338 15.8434 45.2541 15.7323 49.1676 15.75C51.4065 15.7601 52.9421 14.7126 54.0602 13.0012C55.9797 10.0656 54.828 6.33997 51.7286 4.62607C50.2265 3.79562 48.6859 4.06823 47.1529 3.98745C43.6799 3.80572 40.1966 3.98998 36.7236 3.75018C35.9919 3.6997 35.3143 3.61388 34.8763 2.88692C34.0931 1.58446 34.7681 0.211321 36.3037 0.105306C38.6456 -0.0562395 40.9901 -0.0108048 43.3347 0.100258L43.3398 0.102782Z" fill="#FCFBFC" stroke="#F8F8F8" stroke-width="0.499794" mask="url(#path-4-inside-4_240_1225)"/>
<mask id="path-5-inside-5_240_1225" fill="white">
<path d="M157.144 27.29C157.386 26.9922 157.288 26.7322 157.288 26.4975C157.301 19.3339 157.301 12.1678 157.322 5.00429C157.325 3.99716 157.376 2.9875 157.469 1.98541C157.567 0.905069 158.396 0.175589 159.396 0.20083C160.509 0.23112 161.297 1.00099 161.331 2.13433C161.591 10.8856 161.465 19.6393 161.344 28.3906C161.328 29.476 161.336 30.5613 161.272 31.6417C161.202 32.8482 160.635 33.4944 159.489 33.815C158.347 34.133 157.525 33.868 156.783 32.9189C153.666 28.9383 150.796 24.7861 147.841 20.6919C145.867 17.9557 143.943 15.1842 142.008 12.4203C141.706 11.9886 141.348 11.5696 141.31 11.0093C141.258 10.2672 141.789 9.41652 142.446 9.18177C143.219 8.90411 144.154 9.17925 144.636 9.85067C148.109 14.692 151.394 19.2784 154.524 23.6477C155.387 24.8517 156.253 26.0532 157.142 27.2926L157.144 27.29Z"/>
</mask>
<path d="M157.144 27.29C157.386 26.9922 157.288 26.7322 157.288 26.4975C157.301 19.3339 157.301 12.1678 157.322 5.00429C157.325 3.99716 157.376 2.9875 157.469 1.98541C157.567 0.905069 158.396 0.175589 159.396 0.20083C160.509 0.23112 161.297 1.00099 161.331 2.13433C161.591 10.8856 161.465 19.6393 161.344 28.3906C161.328 29.476 161.336 30.5613 161.272 31.6417C161.202 32.8482 160.635 33.4944 159.489 33.815C158.347 34.133 157.525 33.868 156.783 32.9189C153.666 28.9383 150.796 24.7861 147.841 20.6919C145.867 17.9557 143.943 15.1842 142.008 12.4203C141.706 11.9886 141.348 11.5696 141.31 11.0093C141.258 10.2672 141.789 9.41652 142.446 9.18177C143.219 8.90411 144.154 9.17925 144.636 9.85067C148.109 14.692 151.394 19.2784 154.524 23.6477C155.387 24.8517 156.253 26.0532 157.142 27.2926L157.144 27.29Z" fill="#FCFBFC" stroke="#F8F8F8" stroke-width="0.499794" mask="url(#path-5-inside-5_240_1225)"/>
<mask id="path-6-inside-6_240_1225" fill="white">
<path d="M134.166 16.8202C134.151 11.8779 134.161 6.93558 134.3 1.99328C134.326 1.06692 135.153 0.28948 136.168 0.238997C137.191 0.188514 137.92 0.746352 138.038 1.70553C138.293 3.76272 138.26 5.83505 138.263 7.8998C138.27 15.5404 138.373 23.1836 138.175 30.8242C138.159 31.377 138.103 31.9297 138.038 32.48C137.928 33.4039 137.317 33.9062 136.307 33.9314C135.258 33.9592 134.547 33.4644 134.429 32.5456C134.161 30.4405 134.174 28.3202 134.166 26.2024C134.156 23.075 134.166 19.9476 134.163 16.8202H134.166Z"/>
</mask>
<path d="M134.166 16.8202C134.151 11.8779 134.161 6.93558 134.3 1.99328C134.326 1.06692 135.153 0.28948 136.168 0.238997C137.191 0.188514 137.92 0.746352 138.038 1.70553C138.293 3.76272 138.26 5.83505 138.263 7.8998C138.27 15.5404 138.373 23.1836 138.175 30.8242C138.159 31.377 138.103 31.9297 138.038 32.48C137.928 33.4039 137.317 33.9062 136.307 33.9314C135.258 33.9592 134.547 33.4644 134.429 32.5456C134.161 30.4405 134.174 28.3202 134.166 26.2024C134.156 23.075 134.166 19.9476 134.163 16.8202H134.166Z" fill="#FCFBFC" stroke="#F8F8F8" stroke-width="0.499794" mask="url(#path-6-inside-6_240_1225)"/>
<mask id="path-7-inside-7_240_1225" fill="white">
<path d="M51.996 22.7999C52.5448 22.7974 52.9956 22.9741 53.3177 23.4335C55.0104 25.839 56.5124 28.3581 57.8779 30.9504C58.4164 31.9727 58.1381 32.8839 57.2802 33.3862C56.3063 33.9567 55.4587 33.833 54.7424 32.8334C52.9982 30.4026 51.491 27.823 50.1384 25.1675C49.5819 24.0746 50.6382 22.7948 51.996 22.7974V22.7999Z"/>
</mask>
<path d="M51.996 22.7999C52.5448 22.7974 52.9956 22.9741 53.3177 23.4335C55.0104 25.839 56.5124 28.3581 57.8779 30.9504C58.4164 31.9727 58.1381 32.8839 57.2802 33.3862C56.3063 33.9567 55.4587 33.833 54.7424 32.8334C52.9982 30.4026 51.491 27.823 50.1384 25.1675C49.5819 24.0746 50.6382 22.7948 51.996 22.7974V22.7999Z" fill="#FCFBFC" stroke="#F8F8F8" stroke-width="0.499794" mask="url(#path-7-inside-7_240_1225)"/>
<mask id="path-8-inside-8_240_1225" fill="white">
<path d="M15.0557 6.58971C14.2982 7.98557 13.7932 9.32842 13.2393 10.646C10.632 16.8378 8.04784 23.0396 5.43795 29.2314C5.21895 29.7513 5.26275 29.8977 5.88366 29.9028C9.54215 29.928 13.2006 29.9911 16.8566 30.0416C17.882 30.0568 18.8301 30.9882 18.8558 32.0105C18.8816 33.0226 18.0881 33.848 16.9648 33.9036C12.0206 34.1484 7.07654 34.1257 2.13242 33.9414C1.42391 33.9162 0.839069 33.6941 0.390775 33.1312C-0.0704007 32.5532 -0.0987412 31.9852 0.176934 31.3012C3.60355 22.7948 7.12549 14.3313 10.6809 5.88043C11.24 4.55272 11.8661 3.25278 12.3788 1.90741C12.8451 0.68067 13.7185 0.228847 14.9938 0.241467C16.5938 0.259136 17.0962 0.541842 17.6939 1.97304C21.1437 10.222 24.5986 18.4709 28.033 26.7274C28.7312 28.4034 29.4526 30.077 29.888 31.8464C30.1147 32.7627 29.6793 33.4719 28.7003 33.8077C27.6646 34.1636 26.7164 33.8657 26.3403 33.0227C23.398 26.4195 20.6026 19.7582 17.7866 13.1046C16.8926 10.9893 16.0089 8.87155 15.0531 6.58971H15.0557Z"/>
</mask>
<path d="M15.0557 6.58971C14.2982 7.98557 13.7932 9.32842 13.2393 10.646C10.632 16.8378 8.04784 23.0396 5.43795 29.2314C5.21895 29.7513 5.26275 29.8977 5.88366 29.9028C9.54215 29.928 13.2006 29.9911 16.8566 30.0416C17.882 30.0568 18.8301 30.9882 18.8558 32.0105C18.8816 33.0226 18.0881 33.848 16.9648 33.9036C12.0206 34.1484 7.07654 34.1257 2.13242 33.9414C1.42391 33.9162 0.839069 33.6941 0.390775 33.1312C-0.0704007 32.5532 -0.0987412 31.9852 0.176934 31.3012C3.60355 22.7948 7.12549 14.3313 10.6809 5.88043C11.24 4.55272 11.8661 3.25278 12.3788 1.90741C12.8451 0.68067 13.7185 0.228847 14.9938 0.241467C16.5938 0.259136 17.0962 0.541842 17.6939 1.97304C21.1437 10.222 24.5986 18.4709 28.033 26.7274C28.7312 28.4034 29.4526 30.077 29.888 31.8464C30.1147 32.7627 29.6793 33.4719 28.7003 33.8077C27.6646 34.1636 26.7164 33.8657 26.3403 33.0227C23.398 26.4195 20.6026 19.7582 17.7866 13.1046C16.8926 10.9893 16.0089 8.87155 15.0531 6.58971H15.0557Z" fill="#FCFBFC" stroke="#F8F8F8" stroke-width="0.499794" mask="url(#path-8-inside-8_240_1225)"/>
</svg>
